<?xml version="1.0" standalone="no"?>
<!DOCTYPE svg PUBLIC "-//W3C//DTD SVG 20010904//EN"
 "http://www.w3.org/TR/2001/REC-SVG-20010904/DTD/svg10.dtd">
<svg version="1.0" xmlns="http://www.w3.org/2000/svg"
 width="377.000000pt" height="377.000000pt" viewBox="0 0 377.000000 377.000000"
 preserveAspectRatio="xMidYMid meet">
<metadata>
Created by potrace 1.14, written by Peter Selinger 2001-2017
</metadata>
<g transform="translate(0.000000,377.000000) scale(0.100000,-0.100000)"
fill="#000000" stroke="none">
<path d="M1720 3759 c-205 -36 -337 -86 -488 -186 -152 -101 -312 -283 -395
-448 -29 -59 -83 -207 -92 -256 -17 -94 -20 -123 -20 -229 0 -63 3 -135 7
-160 30 -193 157 -468 380 -827 171 -274 186 -315 194 -532 6 -161 14 -188 69
-249 29 -33 35 -46 29 -64 -11 -35 -7 -74 11 -112 15 -32 15 -36 0 -59 -24
-38 -26 -91 -3 -137 19 -39 19 -41 3 -67 -23 -35 -22 -93 1 -135 28 -48 75
-68 159 -68 l70 0 2 -66 c3 -78 27 -124 79 -149 30 -14 60 -16 177 -13 123 3
146 6 169 23 45 34 62 73 60 141 l-1 61 52 -2 c157 -4 228 84 173 215 -12 30
-12 37 1 57 20 30 19 105 -3 138 -17 25 -17 28 0 56 17 29 24 108 11 129 -4 6
8 25 25 43 57 58 64 80 67 222 3 134 22 247 53 319 17 40 46 89 200 341 141
231 235 427 284 596 34 117 37 138 41 269 4 144 -6 215 -50 348 -142 423 -477
717 -908 796 -83 15 -282 18 -357 5z m346 -83 c118 -20 243 -63 349 -120 271
-144 445 -378 530 -714 21 -82 24 -115 21 -207 -5 -137 -8 -153 -53 -295 -45
-141 -167 -385 -287 -575 -216 -340 -246 -419 -247 -652 0 -117 -20 -173 -66
-192 -21 -9 -136 -11 -441 -9 l-412 3 -27 27 c-26 27 -27 31 -30 163 -6 245
-36 336 -200 592 -114 177 -169 270 -209 353 -28 58 -30 66 -15 74 9 5 74 67
144 138 71 70 132 128 137 128 4 0 99 -59 211 -131 498 -321 468 -304 487
-283 9 11 42 48 72 84 30 36 60 70 66 75 6 6 100 112 209 238 108 125 198 227
200 227 1 0 29 -16 61 -35 32 -19 61 -35 66 -35 4 0 8 15 9 33 1 39 4 100 13
234 l7 102 -118 -50 c-185 -80 -213 -92 -213 -98 0 -3 22 -26 50 -51 l50 -45
-31 -35 c-17 -19 -42 -48 -57 -65 -73 -85 -198 -226 -250 -284 -13 -14 -54
-61 -90 -103 -37 -43 -70 -78 -75 -78 -9 0 -36 17 -321 203 -127 82 -258 167
-293 189 l-63 40 -162 -161 -162 -161 -23 57 c-56 135 -75 222 -78 358 -4 147
4 215 41 330 51 161 142 304 283 444 253 251 564 349 917 287z m218 -2878 c21
-30 20 -44 -4 -68 -19 -19 -33 -20 -388 -20 -404 0 -413 1 -407 57 5 53 9 53
411 53 l373 0 15 -22z m-32 -174 c25 -5 37 -22 44 -62 3 -16 -23 -42 -44 -43
-9 -1 -170 -2 -357 -4 -383 -3 -405 0 -405 54 0 56 15 58 394 59 188 0 353 -2
368 -4z m21 -211 c21 -19 22 -52 3 -79 -14 -18 -30 -19 -382 -19 -234 0 -375
3 -388 10 -13 7 -22 22 -24 42 -6 57 -3 58 404 60 324 1 371 0 387 -14z m-262
-192 c31 -2 47 -87 20 -114 -11 -11 -210 -20 -259 -12 -24 4 -36 14 -43 32
-13 36 -3 78 23 90 16 7 180 10 259 4z"/>
</g>
</svg>
